<mxfile host="app.diagrams.net" agent="Mozilla/5.0 (Macintosh; Intel Mac OS X 10_15_7) AppleWebKit/537.36 (KHTML, like Gecko) Chrome/133.0.0.0 Safari/537.36" version="26.0.2">
  <diagram name="第 1 页" id="GRRBzTbhXltk0ez7nLBs">
    <mxGraphModel dx="954" dy="503" grid="1" gridSize="10" guides="1" tooltips="1" connect="1" arrows="1" fold="1" page="1" pageScale="1" pageWidth="2339" pageHeight="3300" math="0" shadow="0">
      <root>
        <mxCell id="0" />
        <mxCell id="1" parent="0" />
        <mxCell id="h-WjH9o7uv-af2M9mUsH-5" value="" style="edgeStyle=orthogonalEdgeStyle;rounded=0;orthogonalLoop=1;jettySize=auto;html=1;" parent="1" source="h-WjH9o7uv-af2M9mUsH-3" target="h-WjH9o7uv-af2M9mUsH-4" edge="1">
          <mxGeometry relative="1" as="geometry" />
        </mxCell>
        <mxCell id="h-WjH9o7uv-af2M9mUsH-8" value="" style="edgeStyle=orthogonalEdgeStyle;rounded=0;orthogonalLoop=1;jettySize=auto;html=1;" parent="1" source="h-WjH9o7uv-af2M9mUsH-3" target="h-WjH9o7uv-af2M9mUsH-4" edge="1">
          <mxGeometry relative="1" as="geometry" />
        </mxCell>
        <mxCell id="h-WjH9o7uv-af2M9mUsH-9" value="" style="edgeStyle=orthogonalEdgeStyle;rounded=0;orthogonalLoop=1;jettySize=auto;html=1;" parent="1" source="h-WjH9o7uv-af2M9mUsH-3" target="h-WjH9o7uv-af2M9mUsH-4" edge="1">
          <mxGeometry relative="1" as="geometry" />
        </mxCell>
        <mxCell id="h-WjH9o7uv-af2M9mUsH-3" value="&lt;span style=&quot;font-size: 20px;&quot;&gt;Arduino&lt;/span&gt;" style="rounded=1;whiteSpace=wrap;html=1;" parent="1" vertex="1">
          <mxGeometry x="580" y="530" width="120" height="60" as="geometry" />
        </mxCell>
        <mxCell id="h-WjH9o7uv-af2M9mUsH-4" value="&lt;font style=&quot;font-size: 18px;&quot;&gt;Servo motor&lt;/font&gt;" style="rounded=1;whiteSpace=wrap;html=1;" parent="1" vertex="1">
          <mxGeometry x="580" y="420" width="120" height="60" as="geometry" />
        </mxCell>
        <mxCell id="h-WjH9o7uv-af2M9mUsH-14" value="&lt;span style=&quot;font-size: 16px;&quot;&gt;Websocket&lt;/span&gt;&lt;div&gt;&lt;span style=&quot;font-size: 16px;&quot;&gt;Server&lt;/span&gt;&lt;/div&gt;" style="rounded=1;whiteSpace=wrap;html=1;" parent="1" vertex="1">
          <mxGeometry x="580" y="660" width="120" height="60" as="geometry" />
        </mxCell>
        <mxCell id="h-WjH9o7uv-af2M9mUsH-16" value="" style="endArrow=classic;startArrow=classic;html=1;rounded=0;entryX=0.5;entryY=1;entryDx=0;entryDy=0;exitX=0.5;exitY=0;exitDx=0;exitDy=0;" parent="1" source="h-WjH9o7uv-af2M9mUsH-14" target="h-WjH9o7uv-af2M9mUsH-3" edge="1">
          <mxGeometry width="50" height="50" relative="1" as="geometry">
            <mxPoint x="390" y="660" as="sourcePoint" />
            <mxPoint x="520" y="610" as="targetPoint" />
          </mxGeometry>
        </mxCell>
        <mxCell id="h-WjH9o7uv-af2M9mUsH-17" value="&lt;font style=&quot;font-size: 16px;&quot;&gt;Web Server&lt;/font&gt;&lt;div&gt;&lt;font style=&quot;font-size: 16px;&quot;&gt;(EC2)&lt;/font&gt;&lt;/div&gt;" style="rounded=1;whiteSpace=wrap;html=1;" parent="1" vertex="1">
          <mxGeometry x="400" y="660" width="120" height="60" as="geometry" />
        </mxCell>
        <mxCell id="iC1xKiAJGUKjYp6LLDDv-2" value="&lt;font style=&quot;font-size: 15px;&quot;&gt;WIFI(Demo)&lt;/font&gt;" style="text;html=1;align=center;verticalAlign=middle;whiteSpace=wrap;rounded=0;" parent="1" vertex="1">
          <mxGeometry x="650" y="618.75" width="80" height="30" as="geometry" />
        </mxCell>
        <mxCell id="iC1xKiAJGUKjYp6LLDDv-4" value="" style="endArrow=classic;startArrow=classic;html=1;rounded=0;exitX=1;exitY=0.5;exitDx=0;exitDy=0;entryX=0;entryY=0.5;entryDx=0;entryDy=0;" parent="1" source="h-WjH9o7uv-af2M9mUsH-17" target="h-WjH9o7uv-af2M9mUsH-14" edge="1">
          <mxGeometry width="50" height="50" relative="1" as="geometry">
            <mxPoint x="620" y="620" as="sourcePoint" />
            <mxPoint x="670" y="570" as="targetPoint" />
          </mxGeometry>
        </mxCell>
        <mxCell id="iC1xKiAJGUKjYp6LLDDv-6" value="&lt;font style=&quot;font-size: 16px;&quot;&gt;Cloudflare&lt;/font&gt;&lt;div&gt;&lt;font style=&quot;font-size: 16px;&quot;&gt;CDN&lt;/font&gt;&lt;/div&gt;" style="rounded=1;whiteSpace=wrap;html=1;" parent="1" vertex="1">
          <mxGeometry x="220" y="660" width="120" height="60" as="geometry" />
        </mxCell>
        <mxCell id="iC1xKiAJGUKjYp6LLDDv-9" value="" style="endArrow=classic;startArrow=classic;html=1;rounded=0;exitX=1;exitY=0.5;exitDx=0;exitDy=0;entryX=0;entryY=0.5;entryDx=0;entryDy=0;" parent="1" source="iC1xKiAJGUKjYp6LLDDv-6" target="h-WjH9o7uv-af2M9mUsH-17" edge="1">
          <mxGeometry width="50" height="50" relative="1" as="geometry">
            <mxPoint x="530" y="600" as="sourcePoint" />
            <mxPoint x="580" y="550" as="targetPoint" />
          </mxGeometry>
        </mxCell>
        <mxCell id="TrcF8W8sENgUymIeh69U-1" style="edgeStyle=orthogonalEdgeStyle;rounded=0;orthogonalLoop=1;jettySize=auto;html=1;entryX=0.5;entryY=0;entryDx=0;entryDy=0;" edge="1" parent="1" source="iC1xKiAJGUKjYp6LLDDv-10" target="iC1xKiAJGUKjYp6LLDDv-6">
          <mxGeometry relative="1" as="geometry" />
        </mxCell>
        <mxCell id="iC1xKiAJGUKjYp6LLDDv-10" value="&lt;span style=&quot;font-size: 16px;&quot;&gt;Admin Page&lt;/span&gt;" style="rounded=1;whiteSpace=wrap;html=1;" parent="1" vertex="1">
          <mxGeometry x="220" y="550" width="120" height="60" as="geometry" />
        </mxCell>
        <mxCell id="iC1xKiAJGUKjYp6LLDDv-13" value="" style="edgeStyle=orthogonalEdgeStyle;rounded=0;orthogonalLoop=1;jettySize=auto;html=1;" parent="1" source="iC1xKiAJGUKjYp6LLDDv-12" target="h-WjH9o7uv-af2M9mUsH-3" edge="1">
          <mxGeometry relative="1" as="geometry" />
        </mxCell>
        <mxCell id="iC1xKiAJGUKjYp6LLDDv-12" value="&lt;font style=&quot;font-size: 18px;&quot;&gt;Power&lt;/font&gt;" style="rounded=1;whiteSpace=wrap;html=1;" parent="1" vertex="1">
          <mxGeometry x="770" y="530" width="120" height="60" as="geometry" />
        </mxCell>
      </root>
    </mxGraphModel>
  </diagram>
</mxfile>
